<?xml version="1.0" encoding="utf-8"?>
<!-- Generator: Adobe Illustrator 25.0.0, SVG Export Plug-In . SVG Version: 6.00 Build 0)  -->
<svg version="1.1" id="Camada_1" xmlns="http://www.w3.org/2000/svg" xmlns:xlink="http://www.w3.org/1999/xlink" x="0px" y="0px"
	 viewBox="0 0 150 150" style="enable-background:new 0 0 150 150;" xml:space="preserve">
<style type="text/css">
	.st0{fill:#FFFFFF;}
</style>
<path class="st0" d="M76,84.3c0-3.8-1.9-7.4-5.1-9.6c-1.5-1.1-3.3-2-5-3l1.2-0.7c4.7-2.9,6.5-7.3,6.3-12.7c-0.2-5-2.7-8.4-7-10.6
	c-2.6-1.3-5.5-2-8.4-2H29.3c-0.4,0-0.8,0-1.2,0.1v57.5c0.4,0,0.8,0.1,1.1,0.1c8.9,0,17.7,0.1,26.6,0c2.7,0,5.3-0.3,7.9-1.1
	c6.3-2,11.3-5.5,12.1-12.7C76,87.8,76.1,86,76,84.3z M40.8,55.6c4.1,0,8.1,0,12.2,0c1.1,0,2.1,0.1,3.2,0.3c3.1,0.5,5.3,3.2,5.2,6.3
	c0,3.1-2.1,5.7-5.2,6.2c-0.5,0.1-1,0.2-1.6,0.3c-4.6,0-9.1,0-13.8,0L40.8,55.6z M63.2,88.3c-1.2,3.3-3.9,4.5-7.1,5.1
	c-0.6,0.1-1.3,0.1-1.9,0.1H40.7c0-5.1,0-10,0-14.8c0-0.3,0.1-0.6,0.1-0.9c0.6,0,1.2,0,1.8,0c4.6,0.1,9.2-0.1,13.7,0.2
	C61.9,78.4,64.9,83.2,63.2,88.3z"/>
<rect x="88.9" y="49.6" class="st0" width="23.3" height="5.6"/>
<path class="st0" d="M112.3,90.2c-0.9-0.1-1.8,0.4-2.2,1.2c-3.3,4.8-9.9,5.9-14.7,2.6c0,0-0.1-0.1-0.1-0.1c-2.8-2.1-4-5-3.8-8.6
	h30.4c-0.1-2.7-0.4-5.4-0.8-8.2c-2.5-11.9-14.2-19.4-25.5-16.3C79.5,65.2,74.6,85.2,85,97.2c5.6,6.5,12.9,8.1,21.1,6.6
	c7.1-1.4,11.9-5.4,14.3-12.3c0.1-0.4,0.2-0.8,0.2-1.2C117.7,90.3,115,90.3,112.3,90.2z M100.3,68.9c4.8-0.2,9,3.8,9.4,8.9H91.5
	C91.7,73,95.5,69.2,100.3,68.9L100.3,68.9z"/>
</svg>
