<?xml version="1.0" encoding="utf-8"?>
<!-- Generator: Adobe Illustrator 25.0.0, SVG Export Plug-In . SVG Version: 6.00 Build 0)  -->
<svg version="1.1" id="Camada_1" xmlns="http://www.w3.org/2000/svg" xmlns:xlink="http://www.w3.org/1999/xlink" x="0px" y="0px"
	 viewBox="0 0 150 150" style="enable-background:new 0 0 150 150;" xml:space="preserve">
<style type="text/css">
	.st0{fill:#FFFFFF;}
</style>
<path class="st0" d="M92.8,118.6c-1,0.4-1.9,0.8-2.9,1.1c-2.1,0.6-3.4-0.4-3.5-2.6c0-3.5,0-7,0-10.5s-0.2-7.1-2.9-10
	c2.2-0.5,4.3-0.8,6.4-1.3c8.9-2.4,13.8-8.4,14.6-17.6c0.5-5.2,0.1-10.3-3.3-14.6c-0.9-1-1.2-2.4-0.8-3.7c0.7-3,0.5-6.2-0.6-9.1
	c-0.3-1-0.8-1.5-1.8-1.2c-2.6,0.8-5.3,1.2-7.5,2.6c-2.5,1.6-5.5,2.1-8.4,1.3c-5.7-1.1-11.6-1-17.3,0.5c-1.1,0.3-2.2,0.1-3.1-0.5
	c-2.9-2-6.2-3.3-9.7-3.9c-1-0.3-2,0.3-2.2,1.2c0,0.1,0,0.2-0.1,0.3c-1,3.2-1.1,6.7-0.2,10c0.1,0.5,0,1-0.3,1.4
	c-3.7,4.3-4.7,9.4-4.1,14.9c0.2,1.7,0.5,3.5,0.9,5.2c2.2,8.1,8.1,12.1,15.9,13.7c1.3,0.3,2.7,0.5,3.7,0.7c-0.8,1.9-1.5,3.8-2.3,5.6
	c-0.2,0.4-0.5,0.7-0.9,0.9c-4.5,2.2-10,0.6-12.5-3.8c-1.6-2.4-3.5-4.3-6.4-5c-0.1,0-0.2-0.1-0.3-0.1l-2.8,0.5c0.4,0.7,0.9,1.4,1.6,2
	c2.3,1.5,4.1,3.6,5,6.2c1.9,5.2,6.6,7.7,12.3,7.4c1.2-0.1,2.4-0.2,3.8-0.4c0,2.7,0.1,5.4,0,8c-0.1,1.6-1.7,2.3-3.6,1.7
	c-4.8-1.6-9.4-4-13.4-7.1c-12.7-10-19.2-23.2-18-39.3c1.5-19.5,12-32.9,30.1-40.1c22.4-8.9,48.8,1.8,59,23.6
	c10.8,22.8,1.1,50-21.7,60.8C94.8,117.8,93.8,118.2,92.8,118.6z"/>
</svg>
