<?xml version="1.0" encoding="utf-8"?>
<!-- Generator: Adobe Illustrator 25.0.0, SVG Export Plug-In . SVG Version: 6.00 Build 0)  -->
<svg version="1.1" id="Camada_1" xmlns="http://www.w3.org/2000/svg" xmlns:xlink="http://www.w3.org/1999/xlink" x="0px" y="0px"
	 viewBox="0 0 150 150" style="enable-background:new 0 0 150 150;" xml:space="preserve">
<style type="text/css">
	.st0{fill:#FFFFFF;}
</style>
<path class="st0" d="M92,32.4c-5.6,0-11.2,0-16.8,0s-11.3,0-17,0c-14-0.2-25.6,10.9-25.8,24.9c0,0.3,0,0.6,0,0.9
	c0,11.2,0,22.4,0,33.6c-0.2,14,11,25.5,25,25.8c0.2,0,0.5,0,0.7,0c11.3,0,22.5,0,33.8,0c14,0.2,25.5-11,25.7-25c0-0.2,0-0.5,0-0.7
	c0-11.3,0-22.5,0-33.8c0.2-14-11-25.5-25-25.7C92.4,32.4,92.2,32.4,92,32.4z M109,91.4c0,10.4-7.1,17.6-17.5,17.6
	c-5.5,0-11,0-16.5,0s-11,0-16.5,0C48.1,109,41,101.9,41,91.4c0-11,0-21.9,0-32.9C41,48.1,48.2,41,58.6,41c11,0,22,0,32.9,0
	c10.3,0,17.5,7.1,17.5,17.5C109,69.4,109,80.4,109,91.4L109,91.4z"/>
<path class="st0" d="M102.6,53c-0.1,3-2.7,5.4-5.7,5.2c-2.8-0.1-5.1-2.4-5.2-5.2c0.1-3,2.7-5.4,5.7-5.2
	C100.2,47.9,102.5,50.2,102.6,53z"/>
<path class="st0" d="M75,53c-12.2,0-22,9.9-22,22s9.9,22,22,22c12.1,0,21.9-9.8,22-21.8c0.1-12.1-9.6-22-21.7-22.1
	C75.2,53,75.1,53,75,53z M75.1,88.4c-7.4,0.1-13.5-5.9-13.5-13.3c-0.1-7.4,5.9-13.5,13.3-13.5c7.4-0.1,13.5,5.9,13.5,13.3
	c0,0,0,0,0,0C88.4,82.3,82.5,88.4,75.1,88.4C75.1,88.4,75.1,88.4,75.1,88.4L75.1,88.4z"/>
</svg>
