<?xml version="1.0" encoding="utf-8"?>
<!-- Generator: Adobe Illustrator 25.0.0, SVG Export Plug-In . SVG Version: 6.00 Build 0)  -->
<svg version="1.1" id="Camada_1" xmlns="http://www.w3.org/2000/svg" xmlns:xlink="http://www.w3.org/1999/xlink" x="0px" y="0px"
	 viewBox="0 0 150 150" style="enable-background:new 0 0 150 150;" xml:space="preserve">
<style type="text/css">
	.st0{fill:#FFFFFF;}
</style>
<path class="st0" d="M55.2,46.1c0,5-4,9.1-9.1,9.2c-5,0-9.1-4-9.2-9.1c0-5,4-9.1,9-9.2C51,37,55.2,41,55.2,46.1z"/>
<path class="st0" d="M113,112.3c0,0.2,0,0.3,0,0.5H97.3v-1c0-8.3,0-16.6,0-24.9c0-1.9-0.2-3.8-0.5-5.6c-1-5.2-4.3-7-9.2-6.4
	c-4.4,0.5-6.8,3.1-7.5,7.9c-0.2,1.7-0.4,3.5-0.4,5.3c0,7.9,0,15.8,0,23.8v1.1H64V62.3h15v6.8c0.2-0.1,0.3-0.1,0.3-0.2
	c3.3-5.3,8.3-7.7,14.4-7.9c3.5-0.2,6.9,0.4,10.1,1.8c4.2,2,6.5,5.4,7.8,9.7c1,3.4,1.4,6.9,1.4,10.4C113.1,92.8,113,102.6,113,112.3z
	"/>
<rect x="38.3" y="62.3" class="st0" width="15.7" height="50.7"/>
</svg>
