<?xml version="1.0" encoding="utf-8"?>
<!-- Generator: Adobe Illustrator 25.0.0, SVG Export Plug-In . SVG Version: 6.00 Build 0)  -->
<svg version="1.1" id="Camada_1" xmlns="http://www.w3.org/2000/svg" xmlns:xlink="http://www.w3.org/1999/xlink" x="0px" y="0px"
	 viewBox="0 0 150 150" style="enable-background:new 0 0 150 150;" xml:space="preserve">
<style type="text/css">
	.st0{fill:#FFFFFF;}
</style>
<path class="st0" d="M120.7,66.7c-4.3-25.3-28.3-42.3-53.6-38S24.8,57,29.1,82.3c0.7,4.2,2,8.3,3.9,12.2c0.4,0.8,0.5,1.7,0.3,2.6
	c-1.4,7.3-3,14.5-4.5,21.8c-0.5,2.3,0.5,3.2,2.8,2.7c7.2-1.7,14.4-3.4,21.6-5c0.7-0.1,1.5-0.1,2.2,0.2c23.5,10.8,51.2,0.5,62-23
	c2.7-6,4.2-12.4,4.3-19C121.4,72.1,121.2,69.3,120.7,66.7z M80.2,110.7c-7.9,1.2-15.9-0.3-22.9-4.2c-1.1-0.6-2.4-0.8-3.6-0.4
	c-4,1-8.1,1.9-12.5,3c0.7-3.5,1.2-6.8,2.1-10c0.8-2.9,0.5-6-0.9-8.6c-11-22.5,3.7-49.1,28.5-52c20-2.3,38,12,40.3,32
	C113.4,90,99.7,107.8,80.2,110.7L80.2,110.7z"/>
<path class="st0" d="M99.5,89.5c-2.8,4.6-6.4,8-10.7,7.7c-5.7,0-11.3-1.6-16.1-4.7c-7.3-4.7-13.6-10.5-18-18
	c-2.2-3.4-3.3-7.5-3.1-11.5c0.2-4.7,3.1-7.8,6.6-10.3c1.4-0.9,3.3-0.5,4.2,0.9c0.1,0.1,0.2,0.3,0.2,0.4c1.4,3,2.8,6,3.9,9
	c0.2,1.1,0,2.2-0.5,3.1c-0.5,0.8-1,1.6-1.7,2.3c-1.1,1.2-1.2,3.1-0.1,4.3c3.9,5.3,8.9,9.7,14.6,12.9c1.4,1,3.3,0.7,4.4-0.7
	c3.8-4.1,3.9-3.2,8.3-2c2,0.5,4,1.1,5.9,1.7c1.8,0.4,2.9,2.2,2.4,4C99.8,89,99.7,89.3,99.5,89.5z"/>
</svg>
