<svg id="Camada_1" data-name="Camada 1" xmlns="http://www.w3.org/2000/svg" viewBox="0 0 1000 1000"><defs><style>.cls-1{fill:#fff;}</style></defs><path class="cls-1" d="M227.84,724.2,359.66,293h21.81c32.85,0,65.71.09,98.56-.08,5.07,0,7.67,1.06,9.36,6.54Q554.1,508.83,619.23,718c.48,1.56.66,3.22,1.14,5.6-2.6.2-4.93.54-7.27.55-29.54,0-59.08-.19-88.62.19-6.58.08-9-2.36-10.71-8.31-9.26-31.69-19.13-63.19-28.28-94.91-1.72-6-4.31-7.58-10.22-7.54q-54.25.38-108.51,0c-5.67,0-8,1.54-9.54,7.26-8.42,31.64-17.61,63.07-26,94.72-1.84,7-4.95,8.86-11.85,8.77-27.33-.38-54.66-.16-82-.16ZM468.48,540.75q-24.54-87.44-48.8-173.84c-15.16,57.88-30.31,115.68-45.54,173.84Z"/><path class="cls-1" d="M673,412.32h95.67V723.53H673Z"/><path class="cls-1" d="M721,275.63c30.44.09,51.36,20.35,51.11,49.49-.24,28-21.81,47.57-52.29,47.43-29.62-.15-50.29-20.27-50-48.65C670.23,294.64,690.47,275.54,721,275.63Z"/></svg>