<svg id="Camada_1" data-name="Camada 1" xmlns="http://www.w3.org/2000/svg" viewBox="0 0 1000 1000"><defs><style>.cls-1{fill:#fff;}</style></defs><path class="cls-1" d="M525.51,239.29c0,5.77-.12,11.55.06,17.32.07,2.47-.69,3.16-3.13,3.12-8.66-.14-17.32-.1-26,0-1.38,0-3.58-1.08-3.59,2s2.19,2,3.58,2c8.5.08,17,.16,25.48,0,2.86-.06,3.69.72,3.66,3.63q-.24,19.88,0,39.75c0,2.87-.75,3.67-3.64,3.65q-24.45-.21-48.92,0c-2.88,0-3.77-.77-3.63-3.65.23-4.92.2-9.86,0-14.78-.1-2.48.71-3.14,3.14-3.1,8.66.14,17.32.1,26,0,1.4,0,3.6,1.07,3.59-2s-2.21-2-3.6-2c-8.49-.09-17-.17-25.48,0-2.88.07-3.67-.75-3.64-3.64.15-14.09.06-28.19.06-42.29Z"/><path class="cls-1" d="M592.78,239.29c0,5.77-.11,11.55.06,17.32.07,2.47-.69,3.16-3.13,3.12-8.66-.14-17.32-.1-26,0-1.38,0-3.58-1.08-3.59,2s2.19,2,3.58,2c8.5.08,17,.16,25.48,0,2.86-.06,3.7.72,3.66,3.63q-.23,19.88,0,39.75c0,2.87-.75,3.67-3.64,3.65q-24.45-.21-48.92,0c-2.88,0-3.77-.77-3.63-3.65.23-4.92.2-9.86,0-14.78-.09-2.48.71-3.14,3.14-3.1,8.66.14,17.32.1,26,0,1.39,0,3.59,1.07,3.58-2s-2.21-2-3.6-2c-8.49-.09-17-.17-25.48,0-2.88.07-3.67-.75-3.64-3.64.15-14.09.06-28.19.06-42.29Z"/><path class="cls-1" d="M458.24,239.29c0,6.79-.1,13.58.06,20.37.05,2.46-.67,3.17-3.12,3.13-8.66-.15-17.33.06-26-.13-2.89-.06-3.76.77-3.64,3.65.22,5.6.19,11.21,0,16.81-.08,2.47.69,3.15,3.13,3.11,8.66-.14,17.32.07,26-.12,2.9-.07,3.74.78,3.63,3.65-.23,5.6-.19,11.22,0,16.81.08,2.49-.72,3.12-3.14,3.1-16.64-.1-33.29-.17-49.93,0-3.79.05-3-2.12-3-4.19q0-33.12,0-66.23Z"/><path class="cls-1" d="M678.92,341.83q-89.43.23-178.87.09H339.54c-6.29,0-12.6.38-18.85-.11-4.9-.39-5.74,1.51-5.13,5.75.68,4.7.87,9.47,1.3,14.2q5.4,59.85,10.81,119.7c3.23,36.18,6.34,72.38,9.54,108.56,3.65,41.26,7.41,82.51,11,123.77.34,3.9,1.45,5.77,5.53,6.89q71.09,19.5,142.05,39.5a15.82,15.82,0,0,0,8.9-.24c46.86-13,93.71-26.11,140.63-38.94,4.73-1.29,6.31-3.31,6.67-8.17,1.89-24.88,4.19-49.73,6.41-74.59,2.89-32.46,5.88-64.92,8.78-97.38,2.54-28.4,5-56.82,7.52-85.23,3.22-36,6.42-72,9.86-108C685,342.74,683.48,341.82,678.92,341.83Zm-63.67,80c-1.49,18.1-2.94,36.2-4.52,54.29-1.83,21-3.8,41.92-5.7,62.87q-3.4,37.78-6.79,75.56c-1.11,12.35-2.24,24.68-3.28,37-.17,2-.39,3.33-2.79,4-30.4,8.31-60.76,16.76-91.13,25.14a3.09,3.09,0,0,1-1,0L499,681q-44.52-12.4-89.05-24.76c-3.18-.88-5.17-2.06-5.47-5.87q-2.5-32-5.48-63.91c-.3-3.32.47-4.49,4-4.44,12.73.18,25.47.14,38.21,0,2.72,0,3.81.63,4,3.59.74,10,1.82,19.93,2.8,29.9.15,1.58-.44,3.42,2,4,16.72,4.21,33.15,9.53,50.06,13.05l-.11.4c15.68-4.22,31.33-8.55,47.06-12.57,3.85-1,4.8-2.91,5.09-6.66,1.41-18.07,3.21-36.11,4.87-54.17-19-.89-38-.47-57-.22-7.45-.11-14.9-.3-22.35-.32-25.44,0-50.88-.09-76.32.08-3.92,0-5.17-1-5.41-5.07-.75-12.34-1.76-24.67-3.22-36.95-.53-4.41,1.09-4.57,4.54-4.56q48.33.15,96.66.05c2,0,4.06-.16,6.09-.24s4.07.16,6.11.17q27,.12,54,.2c2.52-7.75,1.84-15.88,2.92-23.81,1-7.67,1.44-15.42,2.13-23.14-21.72-.55-43.44-.35-65.16-.1-12.37-.09-24.73-.24-37.1-.26-22.9-.05-45.79-.14-68.68.09-4.55,0-6.37-.7-6.6-5.87-.56-12-1.82-24-3.29-35.92-.5-4.06.45-4.86,4.3-4.84,35.1.13,70.2.08,105.3.05,2,0,4.05-.18,6.07-.28q34.38.11,68.74.2c14.43,0,28.86,0,43.29,0C613.8,418.89,616.79,418,615.25,421.8Z"/></svg>