<svg id="Camada_1" data-name="Camada 1" xmlns="http://www.w3.org/2000/svg" viewBox="0 0 1000 1000"><defs><style>.cls-1{fill:#fff;}</style></defs><path class="cls-1" d="M388.91,568.58c-50.09-33-50-104.12-.2-136.89-4-3.31-8.23-6.28-11.85-9.86-23.68-23.46-31.73-51.51-21.44-83.27s33.06-49.87,66-55a72.27,72.27,0,0,1,11-.8c45.1-.05,90.21-.14,135.31,0,39.43.12,71.84,25.93,79.4,64.51,6.51,33.19-4.89,60.28-31.43,81.07-1.3,1-2.66,1.95-4.46,3.26,23.37,16.07,36.55,37.8,37.63,66,.79,20.8-6,39.19-19.5,55.07-26.2,30.87-78,40.52-117.21,5.33v5.84c0,24.65.2,49.31-.06,74a80.43,80.43,0,1,1-128.88-65.09C385,571.4,386.75,570.15,388.91,568.58Zm98.95-124.9c-18.65,0-36.73-.05-54.81,0a74.74,74.74,0,0,0-11,.93c-26.53,4.1-46.72,28.15-46.68,55.48s20.19,52.38,46.91,55c21.41,2.08,43.14.9,64.72,1.14.26,0,.52-.37.84-.6Zm-.13-25.07V306.85c-19.08,0-37.81,0-56.55,0a61.64,61.64,0,0,0-9,.88c-26.57,4.11-46.79,28.06-46.81,55.38s20.1,52.59,46.78,55.05C443.72,420.19,465.6,418.61,487.73,418.61Zm24.71.89c19.37,0,38.43,0,57.48,0a53.74,53.74,0,0,0,8-.84c26.66-4.13,46.88-27.93,47-55.24.09-27.53-20.16-51.5-47.08-55.63a76.22,76.22,0,0,0-11-.88c-18-.09-36.08,0-54.36,0Zm-25.27,161h-3.05c-17.43,0-34.87-.14-52.3,0-35.57.35-61.24,31-55.54,66.13,4.32,26.59,28.33,46.65,55.69,46.52s52.33-20.27,54.8-47.13C488.74,624.67,487.17,602.93,487.17,580.53Zm81.15-24.16a56.34,56.34,0,1,0-56.09-56.55A56.46,56.46,0,0,0,568.32,556.37Z"/></svg>