<svg id="Camada_1" data-name="Camada 1" xmlns="http://www.w3.org/2000/svg" viewBox="0 0 1000 1000"><defs><style>.cls-1{fill:#fff;}</style></defs><path class="cls-1" d="M582.62,239.29c.14,8.31.37,16.62.4,24.93.07,14.94,0,29.88,0,45.14H559.49V277.44l-1.19-.52-15.24,23.29c-5.34-8.13-10.37-15.79-16.21-24.71v33.85H503V239.29h25.51l14.67,24.62,14.92-24.62Z"/><path class="cls-1" d="M418.34,239.29v70H394.5V286.55H373.38V309.3H349v-70h24.49v22.92h20.41V239.29Z"/><path class="cls-1" d="M493.85,239.29v23.35H472.6v46.64H449.09V262.87H428.54V239.29Z"/><path class="cls-1" d="M618.33,239.29v46.93h32.78v23.15H594.82a24.06,24.06,0,0,1-.35-2.88q0-32.1,0-64.2a22,22,0,0,1,.4-3Z"/><path class="cls-1" d="M315.57,342.75H684.46c-.43,5.85-.77,11.38-1.26,16.9q-3.47,39.08-7,78.14c-2.57,28.41-5.23,56.82-7.77,85.23-2.22,24.87-4.29,49.75-6.5,74.61-2.2,24.7-4.54,49.38-6.75,74.07-1.22,13.53-2.5,27.06-3.35,40.62-.32,5.06-1.84,7.56-7.18,9-47,12.76-93.83,25.92-140.76,38.82a15.55,15.55,0,0,1-7.87.11c-47.4-13-94.75-26.27-142.17-39.26-3.82-1-5.26-2.8-5.57-6.49q-3.09-37.07-6.36-74.11c-2.55-28.58-5.26-57.15-7.81-85.74-2.21-24.69-4.25-49.4-6.45-74.1-2.21-24.86-4.54-49.71-6.79-74.57q-2.69-29.69-5.3-59.38C315.48,345.46,315.57,344.3,315.57,342.75Zm239.9,217.12a12.88,12.88,0,0,1,.44,2.64c-1.46,17.77-2.85,35.55-4.63,53.28-.16,1.66-2.59,4-4.4,4.46-14.84,4.2-29.78,8.07-44.7,12a8.12,8.12,0,0,1-3.93.23c-15.59-4.09-31.17-8.23-46.69-12.57a5.43,5.43,0,0,1-3.27-3.49c-.73-4.17-.82-8.44-1.21-12.67-.65-7.06-1.33-14.11-2.05-21.63-15.16,0-29.75-.06-44.33.17-.78,0-2.27,2.56-2.17,3.83,1.71,21.51,3.68,43,5.43,64.5.3,3.57,1.72,5.26,5.24,6.23,29,7.94,57.87,16.1,86.83,24.09a12.77,12.77,0,0,0,6.42.3c29.6-8.07,59.16-16.33,88.74-24.47,2.86-.78,4-2.22,4.21-5.28,1.21-15.4,2.69-30.78,4.09-46.17q3.4-37.27,6.83-74.55c.53-5.85.89-11.72,1.37-18.22H439.08c-1.44-15.7-2.82-30.84-4.27-46.63h8.6l162.74.13c3,0,6.07.65,6.39-4.2.79-12.19,2.05-24.36,3.1-36.54.57-6.62.55-6.64-6-6.63l-219.87.13h-6.46c.4,4.08.73,7.26,1,10.44,3.74,41.28,7.6,82.55,11,123.86.45,5.37,2.05,6.7,7.21,6.68,48.64-.11,97.27,0,145.9.1Z"/></svg>