<svg id="Camada_1" data-name="Camada 1" xmlns="http://www.w3.org/2000/svg" viewBox="0 0 1000 1000"><defs><style>.cls-1{fill:#fff;}</style></defs><path class="cls-1" d="M285,282.65v434.7H719.74V282.65ZM523.15,622.86c0,9-.93,17.88-3.85,26.45C514,665,503.72,676,488,681.2c-19.89,6.57-39.7,6.12-58.79-3-13.2-6.34-22.26-16.9-28.68-30.24l33.12-20c2.8,4.12,5.32,8.16,8.15,12,7.64,10.23,20.78,10.61,29.89,6.82,6.13-2.55,8.61-8,9.55-14.19a75.24,75.24,0,0,0,.73-11.43Q482,554.49,482,488v-3.83h41c.05.89.15,1.88.15,2.86Q523.17,554.92,523.15,622.86Zm164.33,12.25c-.66,3.08-1.16,6.2-2,9.23-4.17,15.11-13.61,25.87-27.47,32.87-26.22,13.22-65.16,10.46-89.25-6.29a72.44,72.44,0,0,1-23.67-27.39l33.09-19.22c2.56,3.4,4.85,6.68,7.4,9.76C597.67,648.65,616.86,652,632,646.86c7.52-2.52,13-7.26,14.18-15.66.95-7-1.08-13.38-7-17.23a177.82,177.82,0,0,0-22.07-11.85c-11.32-5.27-23-9.69-33.47-16.68-17.91-11.94-26.65-28.55-26.35-50.08.38-26.27,17.46-46.86,43.66-52,16.38-3.22,32.5-2.45,47.86,4.74,11.86,5.55,20.06,14.93,26.64,26.42l-31.7,20.38c-2.06-2.86-3.85-5.68-6-8.24a26.25,26.25,0,0,0-28.14-8c-12,4-16.3,19.62-7.4,28.68A47,47,0,0,0,615.14,556c11.27,5.53,22.93,10.28,34.22,15.8,9.85,4.81,18.89,10.94,26,19.49a51.5,51.5,0,0,1,11.53,27.14,14.4,14.4,0,0,0,.57,2.09Z"/></svg>