<svg id="Camada_1" data-name="Camada 1" xmlns="http://www.w3.org/2000/svg" viewBox="0 0 1000 1000"><defs><style>.cls-1{fill:#fff;}</style></defs><path class="cls-1" d="M289.5,576.34v12.84c0,38.08-.17,76.17.12,114.25.06,8.49-2,12.24-11.51,12-22.77-.66-45.57-.41-68.36-.1-7.21.1-10.55-1.66-10.54-9.74q.27-209.46,0-418.94c0-6.5,1.79-9.37,8.78-9.41,51.72-.26,103.52-2.91,155.12-.69,50.86,2.18,96.37,20,126.54,64.23,60.72,89.12,11.45,208.84-94.85,229.13-26.58,5.08-54.24,4.58-81.43,6.39C306,576.75,298.52,576.34,289.5,576.34Zm.73-219.12v11.92c0,41-.07,82,.33,122.94,0,2.07,4.18,5.78,6.53,5.88,25.34,1.07,50.8,1.93,75.4-5.8,18.72-5.89,35.48-15.18,44.8-33.55,19.8-39,.4-84.38-41.48-97.15C348.13,353,319.84,356.57,290.23,357.22Z"/><path class="cls-1" d="M560.34,620.35c5,2.57,8.66,4.53,12.38,6.3,35.59,17,72.7,25.74,112.34,20.43a53,53,0,0,0,11.32-2.76c16.3-6.07,20.33-22.81,6.71-33.4-10.3-8-23-13-34.85-18.92-20.89-10.37-43-18.72-62.77-30.85-67.3-41.21-56-132.45,6.54-165.77,29.8-15.87,61.9-19.58,94.62-16.93,22.18,1.79,44.08,6.95,66.11,10.59,8.83,1.46,11.17,7.21,11,15.41-.28,18.54,0,37.1-.1,55.65,0,13.28-2.2,14.55-14.18,9.18-30.56-13.7-62.62-18.78-95.93-16.21-3.21.24-6.36,1.19-9.54,1.78-9.23,1.7-15.43,6.95-17.4,16.17s2.89,16.42,10.1,20.52c13.49,7.68,27.72,14.08,41.74,20.78,17.84,8.54,36.24,16,53.59,25.43,36.09,19.56,52.1,50.58,48.13,91.35-3.66,37.64-24.25,63.79-57.8,79.7-29.5,14-61.24,16.85-93.34,15.11-26.31-1.42-52.26-5.27-77.19-14.73-9.63-3.65-13.68-8.91-13.24-19.5.79-19.17.16-38.4.28-57.6C558.93,628.69,559.71,625.3,560.34,620.35Z"/></svg>