<svg id="Camada_1" data-name="Camada 1" xmlns="http://www.w3.org/2000/svg" viewBox="0 0 1000 1000"><defs><style>.cls-1{fill:#fff;}</style></defs><path class="cls-1" d="M175.59,291.86h30c15.42,0,30.85.49,46.24-.18,8.91-.39,13.64,3.14,17.56,10.8,24.27,47.55,48.91,94.91,73.46,142.31,1.74,3.36,3.74,6.59,6.59,11.58,2.61-4.79,4.32-7.78,5.9-10.84,24.42-47.47,48.95-94.87,73.08-142.48,4-8,8.84-11.74,18.21-11.4,19,.7,38,.21,57.06.21h11.55c-2.36,5.16-3.63,8.67-5.47,11.84q-53.32,91.77-106.9,183.37c-4.25,7.25-4.82,12.5-.18,20.25,39,65.23,77.39,130.81,115.93,196.3,1.81,3.07,3.34,6.3,5.81,11-4.49.49-7.81,1.15-11.13,1.16-21.64.1-43.3-.47-64.92.28-10,.35-15.47-3.44-20-12-25.24-47-50.92-93.83-76.47-140.71-2.33-4.27-4.75-8.5-8.18-14.61-2.65,4.4-4.67,7.43-6.37,10.64-25.18,47.44-50.58,94.77-75.25,142.48-5.37,10.37-11.65,14.77-23.63,14.23-22.19-1-44.45-.29-68.86-.29,2.6-5.23,4.15-8.93,6.18-12.35q57.26-96.27,114.77-192.39c3.59-6,3.31-10.22,0-16q-55-96.44-109.66-193.08C179.5,299.5,178.22,296.87,175.59,291.86Z"/><path class="cls-1" d="M745.05,412.23V400.29c0-37.35.41-74.71-.27-112-.19-10.4,3.15-12.74,12.8-12.33,17.34.74,34.73.21,52.1.21,13,0,13,0,13,12.7q0,167.1-.09,334.21c0,21.67-.24,43.23,6.81,64.07,1.79,5.29,1.53,9.56-4.48,12-55.82,23.05-113.32,33.23-172.6,17.21-53.7-14.53-88.17-58.21-94.23-113.67-3.67-33.7-2.54-66.66,10.65-98.42,26.28-63.25,98.3-103.57,166-93C737.65,411.73,740.58,411.83,745.05,412.23Zm.05,156.54c0-28.85-.42-57.71.23-86.54.22-9.49-3.55-14-12-15.86-31.47-6.8-58.8.77-79.87,25.43-24.56,28.74-31.71,62.58-25.34,99.38,7.55,43.67,45,88.47,105.64,76.6,7.93-1.56,11.73-4.41,11.54-13.44C744.73,625.83,745.1,597.3,745.1,568.77Z"/></svg>